<svg width="202" height="34" viewBox="0 0 202 34" fill="none" xmlns="http://www.w3.org/2000/svg">
<path d="M23.234 25.242C23.308 25.3407 23.345 25.4763 23.345 25.649C23.345 25.8957 23.2587 26.1053 23.086 26.278C22.938 26.426 22.753 26.5 22.531 26.5H16.685C16.093 26.5 15.6613 26.2533 15.39 25.76L9.877 16.51H7.472V25.575C7.472 25.8463 7.37333 26.0683 7.176 26.241C7.00333 26.4137 6.78133 26.5 6.51 26.5H1.441C1.16967 26.5 0.947667 26.4137 0.775 26.241C0.602333 26.0683 0.516 25.8463 0.516 25.575V1.562C0.516 1.29066 0.602333 1.06866 0.775 0.895999C0.947667 0.698665 1.16967 0.599998 1.441 0.599998H6.51C6.78133 0.599998 7.00333 0.698665 7.176 0.895999C7.37333 1.06866 7.472 1.29066 7.472 1.562V10.331H9.544L14.872 1.34C15.1927 0.846665 15.6613 0.599998 16.278 0.599998H21.939C22.161 0.599998 22.346 0.673999 22.494 0.822C22.642 0.969999 22.716 1.155 22.716 1.377C22.716 1.54967 22.6667 1.69766 22.568 1.821L15.723 13.069L23.234 25.242ZM42.9634 7.26C43.1854 7.26 43.3704 7.34633 43.5184 7.519C43.6911 7.667 43.7774 7.83967 43.7774 8.037C43.7774 8.20967 43.7404 8.37 43.6664 8.518L36.6364 25.501C35.8471 27.3757 35.0947 28.868 34.3794 29.978C33.6641 31.1127 32.813 31.9883 31.8264 32.605C30.8644 33.2463 29.668 33.567 28.2374 33.567H26.3874C26.116 33.567 25.8817 33.4683 25.6844 33.271C25.5117 33.0983 25.4254 32.8763 25.4254 32.605V29.46C25.4254 29.1887 25.5117 28.9667 25.6844 28.794C25.8817 28.6213 26.116 28.535 26.3874 28.535H27.6824C28.3237 28.535 28.817 28.35 29.1624 27.98C29.5077 27.6347 29.89 26.9563 30.3094 25.945L30.4574 25.612L23.0944 8.518C23.0204 8.32067 22.9834 8.185 22.9834 8.111C23.0327 7.86433 23.1314 7.667 23.2794 7.519C23.452 7.34633 23.6494 7.26 23.8714 7.26H28.2744C28.7924 7.26 29.15 7.519 29.3474 8.037L33.3804 18.434L37.6354 8.037C37.8327 7.519 38.2151 7.26 38.7824 7.26H42.9634ZM47.4655 33.53C47.1942 33.53 46.9599 33.4437 46.7625 33.271C46.5899 33.0983 46.5035 32.8763 46.5035 32.605V8.185C46.5035 7.91367 46.5899 7.69167 46.7625 7.519C46.9599 7.34633 47.1942 7.26 47.4655 7.26H51.8685C52.1399 7.26 52.3619 7.34633 52.5345 7.519C52.7072 7.69167 52.7935 7.91367 52.7935 8.185V9.517C54.1255 7.76567 56.0372 6.89 58.5285 6.89C60.9212 6.89 62.7959 7.64233 64.1525 9.147C65.5339 10.627 66.2739 12.7483 66.3725 15.511C66.3972 15.8317 66.4095 16.288 66.4095 16.88C66.4095 17.472 66.3972 17.9407 66.3725 18.286C66.2739 20.95 65.5339 23.0467 64.1525 24.576C62.7712 26.1053 60.8965 26.87 58.5285 26.87C56.1359 26.87 54.3475 26.056 53.1635 24.428V32.605C53.1635 32.8763 53.0772 33.0983 52.9045 33.271C52.7319 33.4437 52.5099 33.53 52.2385 33.53H47.4655ZM56.3825 21.727C57.4925 21.727 58.2819 21.4063 58.7505 20.765C59.2439 20.099 59.5275 19.1863 59.6015 18.027C59.6262 17.7803 59.6385 17.398 59.6385 16.88C59.6385 16.362 59.6262 15.9797 59.6015 15.733C59.5275 14.5737 59.2439 13.6733 58.7505 13.032C58.2819 12.366 57.4925 12.033 56.3825 12.033C55.3219 12.033 54.5325 12.3783 54.0145 13.069C53.4965 13.735 53.2129 14.586 53.1635 15.622C53.1389 15.9427 53.1265 16.4113 53.1265 17.028C53.1265 17.62 53.1389 18.0763 53.1635 18.397C53.2129 19.359 53.4965 20.1607 54.0145 20.802C54.5572 21.4187 55.3465 21.727 56.3825 21.727ZM78.9077 26.87C76.0957 26.87 73.8141 26.13 72.0627 24.65C70.3361 23.1453 69.4111 21.061 69.2877 18.397L69.2507 16.917L69.2877 15.4C69.3864 12.736 70.3114 10.6517 72.0627 9.147C73.8141 7.64233 76.0957 6.89 78.9077 6.89C81.0537 6.89 82.8544 7.27233 84.3097 8.037C85.7651 8.80167 86.8504 9.71433 87.5657 10.775C88.2811 11.811 88.6634 12.7607 88.7127 13.624C88.7374 13.8953 88.6511 14.1297 88.4537 14.327C88.2564 14.4997 88.0221 14.586 87.7507 14.586H82.7927C82.5214 14.586 82.3117 14.5243 82.1637 14.401C82.0157 14.2777 81.8801 14.0803 81.7567 13.809C81.4854 13.1183 81.1277 12.6127 80.6837 12.292C80.2644 11.9713 79.7217 11.811 79.0557 11.811C77.1564 11.811 76.1697 13.069 76.0957 15.585L76.0587 16.991L76.0957 18.212C76.1204 19.4947 76.3794 20.4443 76.8727 21.061C77.3661 21.653 78.0937 21.949 79.0557 21.949C79.7711 21.949 80.3261 21.801 80.7207 21.505C81.1401 21.1843 81.4854 20.6663 81.7567 19.951C81.8801 19.6797 82.0157 19.4823 82.1637 19.359C82.3117 19.2357 82.5214 19.174 82.7927 19.174H87.7507C87.9974 19.174 88.2194 19.2603 88.4167 19.433C88.6141 19.6057 88.7127 19.8153 88.7127 20.062C88.7127 20.8267 88.3674 21.7517 87.6767 22.837C87.0107 23.8977 85.9377 24.835 84.4577 25.649C82.9777 26.463 81.1277 26.87 78.9077 26.87ZM100.914 26.87C97.905 26.87 95.537 26.0683 93.8103 24.465C92.0837 22.837 91.1957 20.4813 91.1463 17.398V16.251C91.245 13.3157 92.1577 11.0217 93.8843 9.369C95.611 7.71633 97.942 6.89 100.877 6.89C102.999 6.89 104.787 7.32167 106.242 8.185C107.722 9.02367 108.82 10.1953 109.535 11.7C110.275 13.18 110.645 14.8697 110.645 16.769V17.694C110.645 17.9653 110.547 18.1997 110.349 18.397C110.177 18.5697 109.955 18.656 109.683 18.656H97.9543V18.878C97.979 19.988 98.238 20.8883 98.7313 21.579C99.2247 22.245 99.9277 22.578 100.84 22.578C101.432 22.578 101.901 22.467 102.246 22.245C102.616 21.9983 102.962 21.69 103.282 21.32C103.504 21.0733 103.677 20.9253 103.8 20.876C103.948 20.802 104.17 20.765 104.466 20.765H109.313C109.535 20.765 109.72 20.839 109.868 20.987C110.041 21.1103 110.127 21.2707 110.127 21.468C110.127 22.1093 109.757 22.8617 109.017 23.725C108.302 24.5883 107.241 25.3283 105.835 25.945C104.454 26.5617 102.814 26.87 100.914 26.87ZM103.837 14.882V14.808C103.837 13.624 103.578 12.7113 103.06 12.07C102.542 11.404 101.815 11.071 100.877 11.071C99.94 11.071 99.2123 11.404 98.6943 12.07C98.201 12.7113 97.9543 13.624 97.9543 14.808V14.882H103.837ZM122.917 26.87C120.105 26.87 117.824 26.13 116.072 24.65C114.346 23.1453 113.421 21.061 113.297 18.397L113.26 16.917L113.297 15.4C113.396 12.736 114.321 10.6517 116.072 9.147C117.824 7.64233 120.105 6.89 122.917 6.89C125.063 6.89 126.864 7.27233 128.319 8.037C129.775 8.80167 130.86 9.71433 131.575 10.775C132.291 11.811 132.673 12.7607 132.722 13.624C132.747 13.8953 132.661 14.1297 132.463 14.327C132.266 14.4997 132.032 14.586 131.76 14.586H126.802C126.531 14.586 126.321 14.5243 126.173 14.401C126.025 14.2777 125.89 14.0803 125.766 13.809C125.495 13.1183 125.137 12.6127 124.693 12.292C124.274 11.9713 123.731 11.811 123.065 11.811C121.166 11.811 120.179 13.069 120.105 15.585L120.068 16.991L120.105 18.212C120.13 19.4947 120.389 20.4443 120.882 21.061C121.376 21.653 122.103 21.949 123.065 21.949C123.781 21.949 124.336 21.801 124.73 21.505C125.15 21.1843 125.495 20.6663 125.766 19.951C125.89 19.6797 126.025 19.4823 126.173 19.359C126.321 19.2357 126.531 19.174 126.802 19.174H131.76C132.007 19.174 132.229 19.2603 132.426 19.433C132.624 19.6057 132.722 19.8153 132.722 20.062C132.722 20.8267 132.377 21.7517 131.686 22.837C131.02 23.8977 129.947 24.835 128.467 25.649C126.987 26.463 125.137 26.87 122.917 26.87Z" fill="#0018ED"/>
<path d="M142.963 26.5C142.692 26.5 142.457 26.4137 142.26 26.241C142.087 26.0683 142.001 25.8463 142.001 25.575V6.631H135.489C135.218 6.631 134.983 6.54467 134.786 6.372C134.613 6.19933 134.527 5.97733 134.527 5.706V1.562C134.527 1.29066 134.613 1.06866 134.786 0.895999C134.983 0.698665 135.218 0.599998 135.489 0.599998H155.58C155.851 0.599998 156.073 0.698665 156.246 0.895999C156.443 1.06866 156.542 1.29066 156.542 1.562V5.706C156.542 5.97733 156.443 6.19933 156.246 6.372C156.073 6.54467 155.851 6.631 155.58 6.631H149.068V25.575C149.068 25.8463 148.969 26.0683 148.772 26.241C148.599 26.4137 148.377 26.5 148.106 26.5H142.963ZM168.632 26.87C165.524 26.87 163.132 26.1547 161.454 24.724C159.802 23.2687 158.901 21.209 158.753 18.545C158.729 18.2243 158.716 17.6693 158.716 16.88C158.716 16.0907 158.729 15.5357 158.753 15.215C158.901 12.6003 159.826 10.5653 161.528 9.11C163.255 7.63 165.623 6.89 168.632 6.89C171.642 6.89 173.997 7.63 175.699 9.11C177.426 10.5653 178.363 12.6003 178.511 15.215C178.561 15.8563 178.585 16.4113 178.585 16.88C178.585 17.3487 178.561 17.9037 178.511 18.545C178.363 21.209 177.451 23.2687 175.773 24.724C174.121 26.1547 171.74 26.87 168.632 26.87ZM168.632 22.208C169.644 22.208 170.396 21.8997 170.889 21.283C171.383 20.6417 171.666 19.6673 171.74 18.36C171.765 18.1133 171.777 17.62 171.777 16.88C171.777 16.14 171.765 15.6467 171.74 15.4C171.666 14.1173 171.383 13.1553 170.889 12.514C170.396 11.8727 169.644 11.552 168.632 11.552C167.621 11.552 166.869 11.8727 166.375 12.514C165.882 13.1553 165.598 14.1173 165.524 15.4L165.487 16.88L165.524 18.36C165.598 19.6673 165.882 20.6417 166.375 21.283C166.869 21.8997 167.621 22.208 168.632 22.208ZM183.035 26.5C182.788 26.5 182.566 26.4137 182.369 26.241C182.196 26.0437 182.11 25.8217 182.11 25.575V8.185C182.11 7.91367 182.196 7.69167 182.369 7.519C182.566 7.34633 182.788 7.26 183.035 7.26H200.24C200.511 7.26 200.733 7.34633 200.906 7.519C201.079 7.69167 201.165 7.91367 201.165 8.185V25.575C201.165 25.8217 201.079 26.0437 200.906 26.241C200.733 26.4137 200.511 26.5 200.24 26.5H195.615C195.368 26.5 195.146 26.4137 194.949 26.241C194.776 26.0437 194.69 25.8217 194.69 25.575V12.292H188.622V25.575C188.622 25.8463 188.523 26.0683 188.326 26.241C188.153 26.4137 187.931 26.5 187.66 26.5H183.035Z" fill="#2D2E3A"/>
</svg>
