<svg width="24" height="25" viewBox="0 0 24 25" fill="none" xmlns="http://www.w3.org/2000/svg">
<path d="M8.92324 6.11559C9.13554 6.62544 8.89432 7.21086 8.38447 7.42315C7.2765 7.8845 6.51712 8.64635 6.18883 9.47634C5.86755 10.2886 5.95452 11.1691 6.46535 11.955C6.76632 12.4181 6.6349 13.0375 6.17183 13.3385C5.70876 13.6394 5.08938 13.508 4.78841 13.0449C3.93823 11.7368 3.76054 10.178 4.32903 8.74072C4.89051 7.32116 6.10268 6.20682 7.61567 5.57682C8.12552 5.36452 8.71094 5.60574 8.92324 6.11559Z" fill="#0018ED"/>
<path fill-rule="evenodd" clip-rule="evenodd" d="M19.0224 14.8124C19.5047 13.8033 19.8169 12.7149 19.9403 11.5912C20.1561 9.62546 19.7842 7.63981 18.8716 5.88535C18.2654 4.71995 17.4356 3.6854 16.4294 2.84082C15.4233 1.99623 14.2606 1.35815 13.0078 0.963034C11.755 0.56792 10.4366 0.423513 9.12801 0.538062C7.81939 0.65261 6.54614 1.02386 5.38103 1.63062C3.62703 2.54407 2.18325 3.95708 1.23223 5.691C0.281205 7.42492 -0.134349 9.4019 0.0380983 11.372C0.210546 13.342 0.963273 15.2168 2.20107 16.7591C3.43887 18.3014 5.10619 19.4421 6.99221 20.0369C8.87824 20.6317 10.8983 20.654 12.797 20.1009C13.3122 19.9508 13.8123 19.7601 14.2928 19.5317L18.2616 23.5199L18.2679 23.5261C18.899 24.1492 19.7506 24.4986 20.6376 24.5C21.3013 24.501 21.9508 24.3059 22.5037 23.9388C23.0567 23.5717 23.4884 23.0489 23.7435 22.4362C23.9986 21.8235 24.0653 21.1489 23.935 20.4982C23.8047 19.8475 23.4833 19.2505 23.0125 18.7828L19.0224 14.8124ZM12.4062 2.87042C11.404 2.55433 10.3493 2.4388 9.30241 2.53044C8.2555 2.62208 7.2369 2.91908 6.30483 3.40449C4.90162 4.13525 3.7466 5.26566 2.98578 6.65279C2.22497 8.03993 1.89252 9.62151 2.03048 11.1976C2.16844 12.7736 2.77062 14.2734 3.76086 15.5072C4.75111 16.7411 6.08495 17.6537 7.59377 18.1295C9.1026 18.6054 10.7186 18.6232 12.2376 18.1807C13.7565 17.7382 15.1101 16.8552 16.1273 15.6435C16.4182 15.297 16.6778 14.9281 16.9043 14.5412C16.9184 14.5137 16.934 14.4868 16.9508 14.4605C17.4896 13.5149 17.8324 12.4648 17.9522 11.373C18.1249 9.80035 17.8274 8.21183 17.0973 6.80827C16.6123 5.87595 15.9484 5.04832 15.1435 4.37265C14.3386 3.69698 13.4085 3.18651 12.4062 2.87042ZM17.9497 16.5665C17.8558 16.6895 17.759 16.8105 17.6592 16.9294C17.1789 17.5014 16.6387 18.0149 16.0501 18.4622L19.6758 22.1055C19.9322 22.3572 20.2785 22.4995 20.6406 22.5C20.9103 22.5004 21.1738 22.4211 21.3975 22.2726C21.6211 22.1241 21.7948 21.9133 21.8971 21.6675C21.9994 21.4218 22.0261 21.1516 21.9739 20.8909C21.9217 20.6303 21.7929 20.3903 21.603 20.2017L17.9497 16.5665Z" fill="#0018ED"/>
</svg>
