<svg width="24" height="25" viewBox="0 0 24 25" fill="none" xmlns="http://www.w3.org/2000/svg">
<path fill-rule="evenodd" clip-rule="evenodd" d="M12.0298 0.499969C10.7569 0.499969 9.51255 0.872512 8.45426 1.57048C7.39597 2.26845 6.57132 3.26046 6.08463 4.42098C5.59795 5.5815 5.4711 6.85839 5.72016 8.09006C5.96921 9.32173 6.58298 10.4528 7.48377 11.3402C7.75842 11.6108 8.05599 11.855 8.37237 12.0707C8.02025 12.1809 7.67285 12.3072 7.33133 12.4495C5.85392 13.0651 4.51657 13.9667 3.39831 15.1009C2.28005 16.2352 1.40357 17.5791 0.820672 19.0532C0.237771 20.5273 -0.0397257 22.1017 0.00458045 23.6835C0.0173127 24.138 0.394447 24.5 0.855319 24.5H23.1447C23.6056 24.5 23.9827 24.138 23.9954 23.6835C24.0397 22.1017 23.7622 20.5273 23.1793 19.0532C22.5964 17.5791 21.72 16.2352 20.6017 15.1009C19.4834 13.9667 18.1461 13.0651 16.6687 12.4495C16.3403 12.3127 16.0066 12.1906 15.6684 12.0835C16.3429 11.6272 16.9264 11.0459 17.3843 10.3678C18.0901 9.32258 18.4658 8.0943 18.4639 6.83836C18.4613 5.15642 17.7823 3.54425 16.5759 2.35585C15.3696 1.16744 13.7346 0.499967 12.0298 0.499969ZM9.40018 2.96666C10.1785 2.45334 11.0936 2.17936 12.0298 2.17935C13.2836 2.17935 14.4861 2.67025 15.3733 3.54426C16.2605 4.41827 16.7598 5.60394 16.7618 6.84092C16.7632 7.7646 16.4869 8.66794 15.9678 9.43664C15.4487 10.2053 14.7102 10.8048 13.8457 11.1593C12.9812 11.5138 12.0295 11.6072 11.1111 11.4279C10.1928 11.2486 9.34893 10.8045 8.68644 10.1518C8.02394 9.49917 7.57255 8.66731 7.38939 7.76148C7.20622 6.85565 7.29951 5.91657 7.65744 5.06306C8.01538 4.20955 8.62187 3.47997 9.40018 2.96666ZM7.99355 13.9966C9.2614 13.4683 10.6237 13.1961 12 13.1961C13.3763 13.1961 14.7386 13.4683 16.0064 13.9966C17.2743 14.5249 18.422 15.2986 19.3816 16.2719C20.3412 17.2453 21.0934 18.3985 21.5936 19.6636C21.9934 20.6745 22.2257 21.7404 22.2835 22.8206H1.71646C1.77427 21.7404 2.00664 20.6745 2.40639 19.6636C2.90661 18.3985 3.65876 17.2453 4.6184 16.2719C5.57804 15.2986 6.7257 14.5249 7.99355 13.9966Z" fill="#0018ED"/>
</svg>
